<svg xmlns="http://www.w3.org/2000/svg" viewBox="0 0 960 1200" preserveAspectRatio="xMidYMid slice" role="img" aria-label="industrial city (placeholder cover)">
<!-- Original placeholder art generated by scripts/build-placeholders.mjs (Quest Board). -->
<defs><linearGradient id="sky" x1="0" y1="0" x2="0" y2="1"><stop offset="0" stop-color="hsl(200 35% 8% / 1)"/><stop offset="1" stop-color="hsl(200 25% 24% / 1)"/></linearGradient><linearGradient id="water" x1="0" y1="0" x2="0" y2="1"><stop offset="0" stop-color="hsl(200 30% 14% / 1)"/><stop offset="1" stop-color="hsl(200 40% 6% / 1)"/></linearGradient></defs>
<rect width="960" height="1200" fill="url(#sky)"/><g transform="translate(-270 450) scale(1.25)"><circle cx="693.1" cy="103.2" r="69.3" fill="hsl(200 10% 40%)" opacity=".12"/><circle cx="578" cy="113" r="41" fill="hsl(200 10% 40%)" opacity=".12"/><circle cx="887.8" cy="157.3" r="94.7" fill="hsl(200 10% 40%)" opacity=".12"/><circle cx="910.3" cy="84.3" r="47.2" fill="hsl(200 10% 40%)" opacity=".12"/><circle cx="199.1" cy="42.6" r="90.4" fill="hsl(200 10% 40%)" opacity=".12"/><circle cx="874.4" cy="180.9" r="72.8" fill="hsl(200 10% 40%)" opacity=".12"/><circle cx="219" cy="178" r="98.6" fill="hsl(200 10% 40%)" opacity=".12"/><circle cx="266.2" cy="53" r="41.9" fill="hsl(200 10% 40%)" opacity=".12"/><circle cx="255.4" cy="245.6" r="69.1" fill="hsl(200 10% 40%)" opacity=".12"/><circle cx="943.5" cy="245.4" r="86" fill="hsl(200 10% 40%)" opacity=".12"/><circle cx="855.7" cy="82.1" r="80.7" fill="hsl(200 10% 40%)" opacity=".12"/><circle cx="596.6" cy="93" r="81.6" fill="hsl(200 10% 40%)" opacity=".12"/><circle cx="991.1" cy="249.2" r="53.4" fill="hsl(200 10% 40%)" opacity=".12"/><circle cx="418.7" cy="172.4" r="96.6" fill="hsl(200 10% 40%)" opacity=".12"/><circle cx="350.4" cy="164.9" r="60.6" fill="hsl(200 10% 40%)" opacity=".12"/><circle cx="580.3" cy="214.9" r="99.3" fill="hsl(200 10% 40%)" opacity=".12"/><circle cx="1125.5" cy="215.7" r="80.6" fill="hsl(200 10% 40%)" opacity=".12"/><circle cx="451.8" cy="111.9" r="102.2" fill="hsl(200 10% 40%)" opacity=".12"/><circle cx="422.2" cy="171.7" r="78.2" fill="hsl(200 10% 40%)" opacity=".12"/><circle cx="264.1" cy="55.4" r="66.9" fill="hsl(200 10% 40%)" opacity=".12"/><circle cx="994.9" cy="45.3" r="52.2" fill="hsl(200 10% 40%)" opacity=".12"/><circle cx="442.6" cy="146.2" r="104.2" fill="hsl(200 10% 40%)" opacity=".12"/><circle cx="169.3" cy="167" r="65.9" fill="hsl(200 10% 40%)" opacity=".12"/><circle cx="1057.1" cy="209.7" r="48.1" fill="hsl(200 10% 40%)" opacity=".12"/><circle cx="30" cy="82.8" r="105.6" fill="hsl(200 10% 40%)" opacity=".12"/><circle cx="710.6" cy="134.3" r="45.8" fill="hsl(200 10% 40%)" opacity=".12"/><polyline points="905,60 880,150 915,150 870,260" fill="none" stroke="hsl(190 100% 75%)" stroke-width="5"/><polyline points="905,60 880,150 915,150 870,260" fill="none" stroke="hsl(190 100% 75% / .3)" stroke-width="18"/><path d="M0 470 L0 380 L80 340 L80 380 L160 340 L160 380 L240 340 L240 380 L320 340 L320 470 Z" fill="hsl(200 25% 6% / 1)"/><rect x="380" y="140" width="34" height="330" fill="hsl(200 25% 6% / 1)"/><circle cx="399.4" cy="120" r="16" fill="hsl(200 8% 55%)" opacity="0.4"/><circle cx="424.5" cy="94" r="23" fill="hsl(200 8% 55%)" opacity="0.3"/><circle cx="443.1" cy="68" r="30" fill="hsl(200 8% 55%)" opacity="0.2"/><circle cx="471.2" cy="42" r="37" fill="hsl(200 8% 55%)" opacity="0.2"/><circle cx="489.1" cy="16" r="44" fill="hsl(200 8% 55%)" opacity="0.1"/><rect x="450" y="200" width="34" height="270" fill="hsl(200 25% 6% / 1)"/><circle cx="472.1" cy="180" r="16" fill="hsl(200 8% 55%)" opacity="0.4"/><circle cx="492.5" cy="154" r="23" fill="hsl(200 8% 55%)" opacity="0.3"/><circle cx="517.4" cy="128" r="30" fill="hsl(200 8% 55%)" opacity="0.2"/><circle cx="540.6" cy="102" r="37" fill="hsl(200 8% 55%)" opacity="0.2"/><circle cx="558.8" cy="76" r="44" fill="hsl(200 8% 55%)" opacity="0.1"/><rect x="980" y="170" width="34" height="300" fill="hsl(200 25% 6% / 1)"/><circle cx="1006.3" cy="150" r="16" fill="hsl(200 8% 55%)" opacity="0.4"/><circle cx="1021.8" cy="124" r="23" fill="hsl(200 8% 55%)" opacity="0.3"/><circle cx="1049.1" cy="98" r="30" fill="hsl(200 8% 55%)" opacity="0.2"/><circle cx="1069.1" cy="72" r="37" fill="hsl(200 8% 55%)" opacity="0.2"/><circle cx="1086.6" cy="46" r="44" fill="hsl(200 8% 55%)" opacity="0.1"/><rect x="1060" y="220" width="34" height="250" fill="hsl(200 25% 6% / 1)"/><circle cx="1083.8" cy="200" r="16" fill="hsl(200 8% 55%)" opacity="0.4"/><circle cx="1104.6" cy="174" r="23" fill="hsl(200 8% 55%)" opacity="0.3"/><circle cx="1129.4" cy="148" r="30" fill="hsl(200 8% 55%)" opacity="0.2"/><circle cx="1147.1" cy="122" r="37" fill="hsl(200 8% 55%)" opacity="0.2"/><circle cx="1167.5" cy="96" r="44" fill="hsl(200 8% 55%)" opacity="0.1"/><rect x="520" y="300" width="420" height="170" fill="hsl(200 25% 6% / 1)"/><rect x="540" y="320" width="18" height="14" fill="hsl(40 90% 60%)" opacity=".75"/><rect x="578" y="320" width="18" height="14" fill="hsl(40 90% 60%)" opacity=".75"/><rect x="654" y="320" width="18" height="14" fill="hsl(40 90% 60%)" opacity=".75"/><rect x="692" y="320" width="18" height="14" fill="hsl(40 90% 60%)" opacity=".75"/><rect x="730" y="320" width="18" height="14" fill="hsl(40 90% 60%)" opacity=".75"/><rect x="806" y="320" width="18" height="14" fill="hsl(40 90% 60%)" opacity=".75"/><rect x="768" y="350" width="18" height="14" fill="hsl(40 90% 60%)" opacity=".75"/><rect x="806" y="350" width="18" height="14" fill="hsl(40 90% 60%)" opacity=".75"/><rect x="844" y="350" width="18" height="14" fill="hsl(40 90% 60%)" opacity=".75"/><rect x="882" y="350" width="18" height="14" fill="hsl(40 90% 60%)" opacity=".75"/><rect x="578" y="380" width="18" height="14" fill="hsl(40 90% 60%)" opacity=".75"/><rect x="616" y="380" width="18" height="14" fill="hsl(40 90% 60%)" opacity=".75"/><rect x="768" y="380" width="18" height="14" fill="hsl(40 90% 60%)" opacity=".75"/><rect x="806" y="380" width="18" height="14" fill="hsl(40 90% 60%)" opacity=".75"/><rect x="616" y="410" width="18" height="14" fill="hsl(40 90% 60%)" opacity=".75"/><rect x="730" y="410" width="18" height="14" fill="hsl(40 90% 60%)" opacity=".75"/><rect x="768" y="410" width="18" height="14" fill="hsl(40 90% 60%)" opacity=".75"/><rect x="540" y="440" width="18" height="14" fill="hsl(40 90% 60%)" opacity=".75"/><rect x="578" y="440" width="18" height="14" fill="hsl(40 90% 60%)" opacity=".75"/><rect x="654" y="440" width="18" height="14" fill="hsl(40 90% 60%)" opacity=".75"/><rect x="692" y="440" width="18" height="14" fill="hsl(40 90% 60%)" opacity=".75"/><rect x="882" y="440" width="18" height="14" fill="hsl(40 90% 60%)" opacity=".75"/><line x1="860" y1="300" x2="870" y2="120" stroke="hsl(200 25% 6% / 1)" stroke-width="10"/><rect y="470" width="1200" height="130" fill="url(#water)"/><rect x="514.6" y="531.5" width="30.4" height="2" fill="hsl(40 90% 60%)" opacity=".25"/><rect x="934.1" y="504.3" width="13.1" height="2" fill="hsl(40 90% 60%)" opacity=".25"/><rect x="100" y="558.4" width="33.3" height="2" fill="hsl(40 90% 60%)" opacity=".25"/><rect x="203.5" y="536.7" width="21.1" height="2" fill="hsl(40 90% 60%)" opacity=".25"/><rect x="906.6" y="555.6" width="22.8" height="2" fill="hsl(40 90% 60%)" opacity=".25"/><rect x="1107.1" y="480.7" width="48.5" height="2" fill="hsl(40 90% 60%)" opacity=".25"/><rect x="212.5" y="581.7" width="43.8" height="2" fill="hsl(40 90% 60%)" opacity=".25"/><rect x="853.7" y="486.3" width="28.7" height="2" fill="hsl(40 90% 60%)" opacity=".25"/><rect x="426" y="566.6" width="29.7" height="2" fill="hsl(40 90% 60%)" opacity=".25"/><rect x="987.8" y="562.2" width="22.8" height="2" fill="hsl(40 90% 60%)" opacity=".25"/><rect x="87.2" y="548.6" width="24.7" height="2" fill="hsl(40 90% 60%)" opacity=".25"/><rect x="244.6" y="551" width="35.9" height="2" fill="hsl(40 90% 60%)" opacity=".25"/><rect x="858" y="539.7" width="14.3" height="2" fill="hsl(40 90% 60%)" opacity=".25"/><rect x="60.9" y="481" width="10.9" height="2" fill="hsl(40 90% 60%)" opacity=".25"/><rect x="530.9" y="587.6" width="28.6" height="2" fill="hsl(40 90% 60%)" opacity=".25"/><rect x="1156.6" y="508.3" width="24.5" height="2" fill="hsl(40 90% 60%)" opacity=".25"/><rect x="371.5" y="486.7" width="14" height="2" fill="hsl(40 90% 60%)" opacity=".25"/><rect x="357.9" y="519" width="42.8" height="2" fill="hsl(40 90% 60%)" opacity=".25"/><rect x="1056" y="562.5" width="48.4" height="2" fill="hsl(40 90% 60%)" opacity=".25"/><rect x="871.5" y="535.6" width="43.4" height="2" fill="hsl(40 90% 60%)" opacity=".25"/><rect x="229.7" y="514.1" width="11.6" height="2" fill="hsl(40 90% 60%)" opacity=".25"/><rect x="1008.3" y="496.4" width="16.2" height="2" fill="hsl(40 90% 60%)" opacity=".25"/><rect x="1191.9" y="532.6" width="28.5" height="2" fill="hsl(40 90% 60%)" opacity=".25"/><rect x="59.6" y="570.8" width="15.9" height="2" fill="hsl(40 90% 60%)" opacity=".25"/><rect x="499.9" y="499.9" width="46.4" height="2" fill="hsl(40 90% 60%)" opacity=".25"/><rect x="294.9" y="549.1" width="10.9" height="2" fill="hsl(40 90% 60%)" opacity=".25"/><rect x="585" y="523.3" width="36.1" height="2" fill="hsl(40 90% 60%)" opacity=".25"/><rect x="211.8" y="498.7" width="29.9" height="2" fill="hsl(40 90% 60%)" opacity=".25"/><rect x="1197.5" y="587.1" width="19.8" height="2" fill="hsl(40 90% 60%)" opacity=".25"/><rect x="749.2" y="584.1" width="24.7" height="2" fill="hsl(40 90% 60%)" opacity=".25"/><rect x="1110.5" y="544.7" width="17.4" height="2" fill="hsl(40 90% 60%)" opacity=".25"/><rect x="887.8" y="530.9" width="12.9" height="2" fill="hsl(40 90% 60%)" opacity=".25"/><rect x="987.7" y="535.2" width="18.5" height="2" fill="hsl(40 90% 60%)" opacity=".25"/><rect x="596.5" y="506.5" width="22.6" height="2" fill="hsl(40 90% 60%)" opacity=".25"/><rect x="325.7" y="491.1" width="31.8" height="2" fill="hsl(40 90% 60%)" opacity=".25"/><rect x="563.7" y="548.2" width="31.8" height="2" fill="hsl(40 90% 60%)" opacity=".25"/><rect x="1009.5" y="503.3" width="33.2" height="2" fill="hsl(40 90% 60%)" opacity=".25"/><rect x="977.9" y="500.3" width="13.3" height="2" fill="hsl(40 90% 60%)" opacity=".25"/><rect x="286.4" y="550.5" width="35.3" height="2" fill="hsl(40 90% 60%)" opacity=".25"/><rect x="589.5" y="502.5" width="27.8" height="2" fill="hsl(40 90% 60%)" opacity=".25"/><line x1="695.6" y1="373" x2="689.6" y2="391" stroke="hsl(200 30% 75%)" stroke-width="1" opacity=".25"/><line x1="491.5" y1="217" x2="485.5" y2="235" stroke="hsl(200 30% 75%)" stroke-width="1" opacity=".25"/><line x1="820.3" y1="388.5" x2="814.3" y2="406.5" stroke="hsl(200 30% 75%)" stroke-width="1" opacity=".25"/><line x1="755" y1="198.5" x2="749" y2="216.5" stroke="hsl(200 30% 75%)" stroke-width="1" opacity=".25"/><line x1="142.5" y1="197.2" x2="136.5" y2="215.2" stroke="hsl(200 30% 75%)" stroke-width="1" opacity=".25"/><line x1="1168.3" y1="82.1" x2="1162.3" y2="100.1" stroke="hsl(200 30% 75%)" stroke-width="1" opacity=".25"/><line x1="1079.6" y1="536.9" x2="1073.6" y2="554.9" stroke="hsl(200 30% 75%)" stroke-width="1" opacity=".25"/><line x1="92.9" y1="100.5" x2="86.9" y2="118.5" stroke="hsl(200 30% 75%)" stroke-width="1" opacity=".25"/><line x1="1029.8" y1="550.5" x2="1023.8" y2="568.5" stroke="hsl(200 30% 75%)" stroke-width="1" opacity=".25"/><line x1="549.9" y1="303.8" x2="543.9" y2="321.8" stroke="hsl(200 30% 75%)" stroke-width="1" opacity=".25"/><line x1="268.1" y1="480" x2="262.1" y2="498" stroke="hsl(200 30% 75%)" stroke-width="1" opacity=".25"/><line x1="1105.8" y1="319.2" x2="1099.8" y2="337.2" stroke="hsl(200 30% 75%)" stroke-width="1" opacity=".25"/><line x1="757.4" y1="597.4" x2="751.4" y2="615.4" stroke="hsl(200 30% 75%)" stroke-width="1" opacity=".25"/><line x1="956.5" y1="159.1" x2="950.5" y2="177.1" stroke="hsl(200 30% 75%)" stroke-width="1" opacity=".25"/><line x1="868.3" y1="285.6" x2="862.3" y2="303.6" stroke="hsl(200 30% 75%)" stroke-width="1" opacity=".25"/><line x1="1149.4" y1="112.8" x2="1143.4" y2="130.8" stroke="hsl(200 30% 75%)" stroke-width="1" opacity=".25"/><line x1="884.1" y1="120.4" x2="878.1" y2="138.4" stroke="hsl(200 30% 75%)" stroke-width="1" opacity=".25"/><line x1="1090.7" y1="3.8" x2="1084.7" y2="21.8" stroke="hsl(200 30% 75%)" stroke-width="1" opacity=".25"/><line x1="227.2" y1="289.7" x2="221.2" y2="307.7" stroke="hsl(200 30% 75%)" stroke-width="1" opacity=".25"/><line x1="1007" y1="554.2" x2="1001" y2="572.2" stroke="hsl(200 30% 75%)" stroke-width="1" opacity=".25"/><line x1="405.1" y1="499.1" x2="399.1" y2="517.1" stroke="hsl(200 30% 75%)" stroke-width="1" opacity=".25"/><line x1="493.9" y1="151.5" x2="487.9" y2="169.5" stroke="hsl(200 30% 75%)" stroke-width="1" opacity=".25"/><line x1="943.4" y1="565.9" x2="937.4" y2="583.9" stroke="hsl(200 30% 75%)" stroke-width="1" opacity=".25"/><line x1="134.4" y1="487.5" x2="128.4" y2="505.5" stroke="hsl(200 30% 75%)" stroke-width="1" opacity=".25"/><line x1="107.9" y1="350.4" x2="101.9" y2="368.4" stroke="hsl(200 30% 75%)" stroke-width="1" opacity=".25"/><line x1="320.3" y1="350.1" x2="314.3" y2="368.1" stroke="hsl(200 30% 75%)" stroke-width="1" opacity=".25"/><line x1="714.8" y1="448.4" x2="708.8" y2="466.4" stroke="hsl(200 30% 75%)" stroke-width="1" opacity=".25"/><line x1="572.7" y1="306.7" x2="566.7" y2="324.7" stroke="hsl(200 30% 75%)" stroke-width="1" opacity=".25"/><line x1="890" y1="498.8" x2="884" y2="516.8" stroke="hsl(200 30% 75%)" stroke-width="1" opacity=".25"/><line x1="1181.7" y1="228.4" x2="1175.7" y2="246.4" stroke="hsl(200 30% 75%)" stroke-width="1" opacity=".25"/><line x1="531.7" y1="452.6" x2="525.7" y2="470.6" stroke="hsl(200 30% 75%)" stroke-width="1" opacity=".25"/><line x1="1132.9" y1="219.6" x2="1126.9" y2="237.6" stroke="hsl(200 30% 75%)" stroke-width="1" opacity=".25"/><line x1="173.4" y1="546.7" x2="167.4" y2="564.7" stroke="hsl(200 30% 75%)" stroke-width="1" opacity=".25"/><line x1="994.9" y1="375.5" x2="988.9" y2="393.5" stroke="hsl(200 30% 75%)" stroke-width="1" opacity=".25"/><line x1="868" y1="396.5" x2="862" y2="414.5" stroke="hsl(200 30% 75%)" stroke-width="1" opacity=".25"/><line x1="856.6" y1="65.3" x2="850.6" y2="83.3" stroke="hsl(200 30% 75%)" stroke-width="1" opacity=".25"/><line x1="620.2" y1="108.1" x2="614.2" y2="126.1" stroke="hsl(200 30% 75%)" stroke-width="1" opacity=".25"/><line x1="680.2" y1="485.3" x2="674.2" y2="503.3" stroke="hsl(200 30% 75%)" stroke-width="1" opacity=".25"/><line x1="340.9" y1="543.5" x2="334.9" y2="561.5" stroke="hsl(200 30% 75%)" stroke-width="1" opacity=".25"/><line x1="512.5" y1="165.6" x2="506.5" y2="183.6" stroke="hsl(200 30% 75%)" stroke-width="1" opacity=".25"/><line x1="989.5" y1="503.7" x2="983.5" y2="521.7" stroke="hsl(200 30% 75%)" stroke-width="1" opacity=".25"/><line x1="1048.1" y1="279.6" x2="1042.1" y2="297.6" stroke="hsl(200 30% 75%)" stroke-width="1" opacity=".25"/><line x1="443.7" y1="427.3" x2="437.7" y2="445.3" stroke="hsl(200 30% 75%)" stroke-width="1" opacity=".25"/><line x1="79.4" y1="153.6" x2="73.4" y2="171.6" stroke="hsl(200 30% 75%)" stroke-width="1" opacity=".25"/><line x1="776.8" y1="333.2" x2="770.8" y2="351.2" stroke="hsl(200 30% 75%)" stroke-width="1" opacity=".25"/><line x1="419.5" y1="293.7" x2="413.5" y2="311.7" stroke="hsl(200 30% 75%)" stroke-width="1" opacity=".25"/><line x1="60.5" y1="383" x2="54.5" y2="401" stroke="hsl(200 30% 75%)" stroke-width="1" opacity=".25"/><line x1="689.1" y1="103.9" x2="683.1" y2="121.9" stroke="hsl(200 30% 75%)" stroke-width="1" opacity=".25"/><line x1="1048.9" y1="205.4" x2="1042.9" y2="223.4" stroke="hsl(200 30% 75%)" stroke-width="1" opacity=".25"/><line x1="119.8" y1="447.3" x2="113.8" y2="465.3" stroke="hsl(200 30% 75%)" stroke-width="1" opacity=".25"/><line x1="142.2" y1="461.2" x2="136.2" y2="479.2" stroke="hsl(200 30% 75%)" stroke-width="1" opacity=".25"/><line x1="25.8" y1="389.4" x2="19.8" y2="407.4" stroke="hsl(200 30% 75%)" stroke-width="1" opacity=".25"/><line x1="364.1" y1="278.1" x2="358.1" y2="296.1" stroke="hsl(200 30% 75%)" stroke-width="1" opacity=".25"/><line x1="835.5" y1="482.4" x2="829.5" y2="500.4" stroke="hsl(200 30% 75%)" stroke-width="1" opacity=".25"/><line x1="621.6" y1="481.3" x2="615.6" y2="499.3" stroke="hsl(200 30% 75%)" stroke-width="1" opacity=".25"/><line x1="511.3" y1="477.5" x2="505.3" y2="495.5" stroke="hsl(200 30% 75%)" stroke-width="1" opacity=".25"/><line x1="121.6" y1="254.7" x2="115.6" y2="272.7" stroke="hsl(200 30% 75%)" stroke-width="1" opacity=".25"/><line x1="408.2" y1="324.3" x2="402.2" y2="342.3" stroke="hsl(200 30% 75%)" stroke-width="1" opacity=".25"/><line x1="8.8" y1="108.5" x2="2.8" y2="126.5" stroke="hsl(200 30% 75%)" stroke-width="1" opacity=".25"/><line x1="492.4" y1="207.5" x2="486.4" y2="225.5" stroke="hsl(200 30% 75%)" stroke-width="1" opacity=".25"/><line x1="566.3" y1="225.9" x2="560.3" y2="243.9" stroke="hsl(200 30% 75%)" stroke-width="1" opacity=".25"/><line x1="563.7" y1="105.7" x2="557.7" y2="123.7" stroke="hsl(200 30% 75%)" stroke-width="1" opacity=".25"/><line x1="750.3" y1="110" x2="744.3" y2="128" stroke="hsl(200 30% 75%)" stroke-width="1" opacity=".25"/><line x1="1162.1" y1="369.2" x2="1156.1" y2="387.2" stroke="hsl(200 30% 75%)" stroke-width="1" opacity=".25"/><line x1="728.6" y1="464.9" x2="722.6" y2="482.9" stroke="hsl(200 30% 75%)" stroke-width="1" opacity=".25"/><line x1="990.3" y1="327.8" x2="984.3" y2="345.8" stroke="hsl(200 30% 75%)" stroke-width="1" opacity=".25"/><line x1="200" y1="324.7" x2="194" y2="342.7" stroke="hsl(200 30% 75%)" stroke-width="1" opacity=".25"/><line x1="656" y1="583.6" x2="650" y2="601.6" stroke="hsl(200 30% 75%)" stroke-width="1" opacity=".25"/><line x1="592.8" y1="473.8" x2="586.8" y2="491.8" stroke="hsl(200 30% 75%)" stroke-width="1" opacity=".25"/><line x1="762.4" y1="494.6" x2="756.4" y2="512.6" stroke="hsl(200 30% 75%)" stroke-width="1" opacity=".25"/><line x1="149.7" y1="479.8" x2="143.7" y2="497.8" stroke="hsl(200 30% 75%)" stroke-width="1" opacity=".25"/><line x1="597.8" y1="333.6" x2="591.8" y2="351.6" stroke="hsl(200 30% 75%)" stroke-width="1" opacity=".25"/><line x1="277.8" y1="155.4" x2="271.8" y2="173.4" stroke="hsl(200 30% 75%)" stroke-width="1" opacity=".25"/><line x1="1095.4" y1="157.3" x2="1089.4" y2="175.3" stroke="hsl(200 30% 75%)" stroke-width="1" opacity=".25"/><line x1="976.1" y1="72.3" x2="970.1" y2="90.3" stroke="hsl(200 30% 75%)" stroke-width="1" opacity=".25"/><line x1="1025.1" y1="312.2" x2="1019.1" y2="330.2" stroke="hsl(200 30% 75%)" stroke-width="1" opacity=".25"/><line x1="943.6" y1="235.4" x2="937.6" y2="253.4" stroke="hsl(200 30% 75%)" stroke-width="1" opacity=".25"/><line x1="1126.7" y1="595.5" x2="1120.7" y2="613.5" stroke="hsl(200 30% 75%)" stroke-width="1" opacity=".25"/><line x1="940.8" y1="343.3" x2="934.8" y2="361.3" stroke="hsl(200 30% 75%)" stroke-width="1" opacity=".25"/><line x1="977.5" y1="566.8" x2="971.5" y2="584.8" stroke="hsl(200 30% 75%)" stroke-width="1" opacity=".25"/><line x1="870.3" y1="444.1" x2="864.3" y2="462.1" stroke="hsl(200 30% 75%)" stroke-width="1" opacity=".25"/><line x1="1100.8" y1="255.1" x2="1094.8" y2="273.1" stroke="hsl(200 30% 75%)" stroke-width="1" opacity=".25"/><line x1="57.1" y1="293.7" x2="51.1" y2="311.7" stroke="hsl(200 30% 75%)" stroke-width="1" opacity=".25"/><line x1="1196.8" y1="384.6" x2="1190.8" y2="402.6" stroke="hsl(200 30% 75%)" stroke-width="1" opacity=".25"/><line x1="490.3" y1="84.1" x2="484.3" y2="102.1" stroke="hsl(200 30% 75%)" stroke-width="1" opacity=".25"/><line x1="0.4" y1="563.3" x2="-5.6" y2="581.3" stroke="hsl(200 30% 75%)" stroke-width="1" opacity=".25"/><line x1="204.6" y1="5.1" x2="198.6" y2="23.1" stroke="hsl(200 30% 75%)" stroke-width="1" opacity=".25"/><line x1="658.5" y1="456.4" x2="652.5" y2="474.4" stroke="hsl(200 30% 75%)" stroke-width="1" opacity=".25"/><line x1="758.8" y1="317.4" x2="752.8" y2="335.4" stroke="hsl(200 30% 75%)" stroke-width="1" opacity=".25"/><line x1="179.4" y1="258.9" x2="173.4" y2="276.9" stroke="hsl(200 30% 75%)" stroke-width="1" opacity=".25"/><line x1="1165.9" y1="537.3" x2="1159.9" y2="555.3" stroke="hsl(200 30% 75%)" stroke-width="1" opacity=".25"/><line x1="244.4" y1="357.5" x2="238.4" y2="375.5" stroke="hsl(200 30% 75%)" stroke-width="1" opacity=".25"/><line x1="147.3" y1="3.7" x2="141.3" y2="21.7" stroke="hsl(200 30% 75%)" stroke-width="1" opacity=".25"/><line x1="1026.8" y1="122.6" x2="1020.8" y2="140.6" stroke="hsl(200 30% 75%)" stroke-width="1" opacity=".25"/><line x1="694.1" y1="71.2" x2="688.1" y2="89.2" stroke="hsl(200 30% 75%)" stroke-width="1" opacity=".25"/><line x1="998.4" y1="222.7" x2="992.4" y2="240.7" stroke="hsl(200 30% 75%)" stroke-width="1" opacity=".25"/><line x1="1016.6" y1="92.9" x2="1010.6" y2="110.9" stroke="hsl(200 30% 75%)" stroke-width="1" opacity=".25"/><line x1="1022.5" y1="14.8" x2="1016.5" y2="32.8" stroke="hsl(200 30% 75%)" stroke-width="1" opacity=".25"/><line x1="986.5" y1="505.5" x2="980.5" y2="523.5" stroke="hsl(200 30% 75%)" stroke-width="1" opacity=".25"/><line x1="723.9" y1="583.1" x2="717.9" y2="601.1" stroke="hsl(200 30% 75%)" stroke-width="1" opacity=".25"/><line x1="518.7" y1="423.7" x2="512.7" y2="441.7" stroke="hsl(200 30% 75%)" stroke-width="1" opacity=".25"/><line x1="15.7" y1="360.9" x2="9.7" y2="378.9" stroke="hsl(200 30% 75%)" stroke-width="1" opacity=".25"/><line x1="480.4" y1="330.3" x2="474.4" y2="348.3" stroke="hsl(200 30% 75%)" stroke-width="1" opacity=".25"/><line x1="568.9" y1="332.2" x2="562.9" y2="350.2" stroke="hsl(200 30% 75%)" stroke-width="1" opacity=".25"/><line x1="937.9" y1="454.1" x2="931.9" y2="472.1" stroke="hsl(200 30% 75%)" stroke-width="1" opacity=".25"/><line x1="389.3" y1="147.1" x2="383.3" y2="165.1" stroke="hsl(200 30% 75%)" stroke-width="1" opacity=".25"/><line x1="621.8" y1="264.6" x2="615.8" y2="282.6" stroke="hsl(200 30% 75%)" stroke-width="1" opacity=".25"/><line x1="1032.1" y1="121" x2="1026.1" y2="139" stroke="hsl(200 30% 75%)" stroke-width="1" opacity=".25"/><line x1="907.8" y1="343.4" x2="901.8" y2="361.4" stroke="hsl(200 30% 75%)" stroke-width="1" opacity=".25"/><line x1="1086.7" y1="46" x2="1080.7" y2="64" stroke="hsl(200 30% 75%)" stroke-width="1" opacity=".25"/><line x1="807.6" y1="383" x2="801.6" y2="401" stroke="hsl(200 30% 75%)" stroke-width="1" opacity=".25"/><line x1="990.7" y1="70.9" x2="984.7" y2="88.9" stroke="hsl(200 30% 75%)" stroke-width="1" opacity=".25"/><line x1="1063.1" y1="599" x2="1057.1" y2="617" stroke="hsl(200 30% 75%)" stroke-width="1" opacity=".25"/><line x1="417.7" y1="1.2" x2="411.7" y2="19.2" stroke="hsl(200 30% 75%)" stroke-width="1" opacity=".25"/><line x1="812.7" y1="126.5" x2="806.7" y2="144.5" stroke="hsl(200 30% 75%)" stroke-width="1" opacity=".25"/><line x1="7.3" y1="168.2" x2="1.3" y2="186.2" stroke="hsl(200 30% 75%)" stroke-width="1" opacity=".25"/><line x1="171.9" y1="51.4" x2="165.9" y2="69.4" stroke="hsl(200 30% 75%)" stroke-width="1" opacity=".25"/><line x1="895.8" y1="8.9" x2="889.8" y2="26.9" stroke="hsl(200 30% 75%)" stroke-width="1" opacity=".25"/><line x1="285.4" y1="348.9" x2="279.4" y2="366.9" stroke="hsl(200 30% 75%)" stroke-width="1" opacity=".25"/><line x1="148.5" y1="277.7" x2="142.5" y2="295.7" stroke="hsl(200 30% 75%)" stroke-width="1" opacity=".25"/></g>
</svg>
