<svg xmlns="http://www.w3.org/2000/svg" viewBox="0 0 1200 600" preserveAspectRatio="xMidYMid slice" role="img" aria-label="space station (placeholder cover)">
<!-- Original placeholder art generated by scripts/build-placeholders.mjs (Quest Board). -->
<defs><linearGradient id="sky" x1="0" y1="0" x2="0" y2="1"><stop offset="0" stop-color="hsl(200 50% 4% / 1)"/><stop offset="1" stop-color="hsl(160 50% 14% / 1)"/></linearGradient><radialGradient id="neb"><stop offset="0" stop-color="hsl(160 70% 45% / 0.35)"/><stop offset="1" stop-color="hsl(160 70% 45% / 0)"/></radialGradient><radialGradient id="planet"><stop offset="0" stop-color="hsl(140 45% 45% / 1)"/><stop offset="0.7" stop-color="hsl(160 50% 22% / 1)"/><stop offset="1" stop-color="hsl(160 50% 12% / 1)"/></radialGradient></defs>
<rect width="1200" height="600" fill="url(#sky)"/><ellipse cx="900" cy="160" rx="360" ry="160" fill="url(#neb)"/><ellipse cx="250" cy="120" rx="260" ry="110" fill="url(#neb)" opacity=".6"/><circle cx="245.4" cy="161.6" r="0.7" fill="#fff" opacity="0.5"/><circle cx="678.9" cy="28.1" r="1.2" fill="#fff" opacity="0.9"/><circle cx="963.8" cy="567.8" r="0.8" fill="#fff" opacity="0.7"/><circle cx="493.8" cy="280.1" r="1.1" fill="#fff" opacity="0.7"/><circle cx="75.2" cy="105.8" r="1.3" fill="#fff" opacity="0.8"/><circle cx="484.9" cy="460.3" r="1.7" fill="#fff" opacity="0.9"/><circle cx="217.8" cy="137.5" r="0.9" fill="#fff" opacity="1"/><circle cx="356.3" cy="214.1" r="0.8" fill="#fff" opacity="0.6"/><circle cx="860.6" cy="561.6" r="1.1" fill="#fff" opacity="0.7"/><circle cx="782.4" cy="509.3" r="2" fill="#fff" opacity="1"/><circle cx="667.9" cy="216.4" r="2.3" fill="#fff" opacity="0.8"/><circle cx="809" cy="501.9" r="1.9" fill="#fff" opacity="0.7"/><circle cx="125.7" cy="509.8" r="2.3" fill="#fff" opacity="0.8"/><circle cx="411.5" cy="207.7" r="2.1" fill="#fff" opacity="0.6"/><circle cx="671.1" cy="38.3" r="1.9" fill="#fff" opacity="0.6"/><circle cx="818" cy="165.3" r="1.6" fill="#fff" opacity="0.9"/><circle cx="824.3" cy="455.4" r="1.5" fill="#fff" opacity="0.4"/><circle cx="303.1" cy="569.6" r="0.9" fill="#fff" opacity="0.8"/><circle cx="332.6" cy="259.3" r="0.7" fill="#fff" opacity="0.9"/><circle cx="1000.7" cy="252.3" r="0.8" fill="#fff" opacity="0.7"/><circle cx="1.1" cy="373.8" r="1.5" fill="#fff" opacity="0.4"/><circle cx="446.7" cy="362.5" r="2.1" fill="#fff" opacity="0.5"/><circle cx="571.6" cy="502.2" r="1.9" fill="#fff" opacity="0.5"/><circle cx="847.9" cy="325.3" r="1.4" fill="#fff" opacity="0.7"/><circle cx="455.7" cy="77" r="0.9" fill="#fff" opacity="0.8"/><circle cx="524" cy="514.8" r="1.6" fill="#fff" opacity="0.4"/><circle cx="1029.8" cy="355.3" r="1.2" fill="#fff" opacity="0.9"/><circle cx="590.3" cy="352.3" r="0.9" fill="#fff" opacity="0.6"/><circle cx="2.5" cy="82.2" r="2.3" fill="#fff" opacity="0.7"/><circle cx="367.4" cy="75" r="0.8" fill="#fff" opacity="0.7"/><circle cx="128.7" cy="231.3" r="1.1" fill="#fff" opacity="0.8"/><circle cx="1058.5" cy="180.7" r="1.5" fill="#fff" opacity="0.4"/><circle cx="209" cy="313.8" r="1.6" fill="#fff" opacity="0.8"/><circle cx="691.8" cy="433.3" r="1.3" fill="#fff" opacity="0.7"/><circle cx="1118.3" cy="47.5" r="1.2" fill="#fff" opacity="0.9"/><circle cx="22.1" cy="382.5" r="0.7" fill="#fff" opacity="0.9"/><circle cx="227.1" cy="503.6" r="1.5" fill="#fff" opacity="0.6"/><circle cx="883.5" cy="379.6" r="2.2" fill="#fff" opacity="0.3"/><circle cx="261.4" cy="510.1" r="2.3" fill="#fff" opacity="0.9"/><circle cx="121.7" cy="91.4" r="0.9" fill="#fff" opacity="0.8"/><circle cx="1.2" cy="327.7" r="1.4" fill="#fff" opacity="0.6"/><circle cx="626.2" cy="59.8" r="0.9" fill="#fff" opacity="0.6"/><circle cx="776" cy="166.1" r="1.6" fill="#fff" opacity="0.9"/><circle cx="837.1" cy="467.3" r="1.5" fill="#fff" opacity="0.6"/><circle cx="337.6" cy="156.2" r="1" fill="#fff" opacity="0.4"/><circle cx="81.8" cy="415.5" r="2.2" fill="#fff" opacity="0.3"/><circle cx="210.9" cy="543.1" r="1.4" fill="#fff" opacity="0.6"/><circle cx="743.3" cy="236.3" r="1.1" fill="#fff" opacity="0.7"/><circle cx="364" cy="132.3" r="1.9" fill="#fff" opacity="0.9"/><circle cx="250.9" cy="225.6" r="0.7" fill="#fff" opacity="0.7"/><circle cx="176.1" cy="557.2" r="2.3" fill="#fff" opacity="0.8"/><circle cx="952.5" cy="323.8" r="0.7" fill="#fff" opacity="0.3"/><circle cx="857.4" cy="18.7" r="1.6" fill="#fff" opacity="0.6"/><circle cx="906.9" cy="384.6" r="1.7" fill="#fff" opacity="1"/><circle cx="39" cy="393.2" r="1.1" fill="#fff" opacity="1"/><circle cx="963.2" cy="355.2" r="1.9" fill="#fff" opacity="0.4"/><circle cx="170.7" cy="588.4" r="1.4" fill="#fff" opacity="0.7"/><circle cx="872" cy="165" r="0.6" fill="#fff" opacity="0.9"/><circle cx="745.8" cy="465" r="2.1" fill="#fff" opacity="0.7"/><circle cx="996.7" cy="344.6" r="1.9" fill="#fff" opacity="0.5"/><circle cx="43.3" cy="153.9" r="1.4" fill="#fff" opacity="0.6"/><circle cx="951.1" cy="32.5" r="0.9" fill="#fff" opacity="0.6"/><circle cx="628.2" cy="294.5" r="0.8" fill="#fff" opacity="0.6"/><circle cx="732.3" cy="568.9" r="1.4" fill="#fff" opacity="1"/><circle cx="251.6" cy="460.1" r="0.7" fill="#fff" opacity="0.8"/><circle cx="866.4" cy="377.7" r="1" fill="#fff" opacity="0.9"/><circle cx="1186.3" cy="203.3" r="1.4" fill="#fff" opacity="0.8"/><circle cx="595" cy="191.3" r="1.3" fill="#fff" opacity="0.4"/><circle cx="32.7" cy="366.1" r="1.9" fill="#fff" opacity="0.3"/><circle cx="1157.9" cy="488.1" r="1" fill="#fff" opacity="0.9"/><circle cx="819.4" cy="483.4" r="0.7" fill="#fff" opacity="0.3"/><circle cx="180.8" cy="134.6" r="1.5" fill="#fff" opacity="0.8"/><circle cx="524.8" cy="370.2" r="1.3" fill="#fff" opacity="0.9"/><circle cx="759.8" cy="410.2" r="1.2" fill="#fff" opacity="0.6"/><circle cx="769.3" cy="209.7" r="2" fill="#fff" opacity="0.7"/><circle cx="669.6" cy="205.2" r="0.8" fill="#fff" opacity="0.8"/><circle cx="616" cy="317.2" r="0.9" fill="#fff" opacity="0.4"/><circle cx="628.6" cy="105.4" r="1.8" fill="#fff" opacity="0.6"/><circle cx="669.7" cy="8.5" r="1.6" fill="#fff" opacity="0.8"/><circle cx="77.1" cy="374.8" r="1.3" fill="#fff" opacity="0.5"/><circle cx="203.9" cy="165.3" r="2.3" fill="#fff" opacity="0.7"/><circle cx="1034.8" cy="219.8" r="1.3" fill="#fff" opacity="0.9"/><circle cx="438.3" cy="530.4" r="0.8" fill="#fff" opacity="0.5"/><circle cx="484.9" cy="34.1" r="0.7" fill="#fff" opacity="0.6"/><circle cx="356.4" cy="191.5" r="0.7" fill="#fff" opacity="0.7"/><circle cx="727.1" cy="204.1" r="2.1" fill="#fff" opacity="0.4"/><circle cx="489.4" cy="357.4" r="0.7" fill="#fff" opacity="0.6"/><circle cx="256.6" cy="202.7" r="0.9" fill="#fff" opacity="0.9"/><circle cx="1043.2" cy="263" r="1.7" fill="#fff" opacity="0.6"/><circle cx="99.9" cy="251.7" r="0.7" fill="#fff" opacity="0.9"/><circle cx="873.9" cy="445.6" r="0.6" fill="#fff" opacity="0.7"/><circle cx="1168.8" cy="525.7" r="2.4" fill="#fff" opacity="0.3"/><circle cx="685.7" cy="251.4" r="0.9" fill="#fff" opacity="0.7"/><circle cx="1100.1" cy="397.8" r="1.8" fill="#fff" opacity="0.9"/><circle cx="6.2" cy="529.1" r="2.3" fill="#fff" opacity="0.5"/><circle cx="156.6" cy="169.7" r="2.1" fill="#fff" opacity="0.5"/><circle cx="619.4" cy="158.9" r="1.4" fill="#fff" opacity="0.5"/><circle cx="14.7" cy="424.4" r="2.2" fill="#fff" opacity="0.5"/><circle cx="398.9" cy="149.4" r="2.3" fill="#fff" opacity="0.9"/><circle cx="319.2" cy="399.2" r="1.8" fill="#fff" opacity="0.9"/><circle cx="714.5" cy="383.8" r="0.7" fill="#fff" opacity="0.9"/><circle cx="307.7" cy="274.9" r="1.9" fill="#fff" opacity="1"/><circle cx="356.5" cy="148.1" r="1.9" fill="#fff" opacity="0.8"/><circle cx="613.6" cy="284.9" r="0.9" fill="#fff" opacity="0.5"/><circle cx="1199.2" cy="297.6" r="1.2" fill="#fff" opacity="0.9"/><circle cx="23.7" cy="514.4" r="2" fill="#fff" opacity="1"/><circle cx="920.8" cy="301.9" r="1.1" fill="#fff" opacity="0.3"/><circle cx="1063" cy="44.3" r="0.8" fill="#fff" opacity="1"/><circle cx="452.2" cy="61" r="1.2" fill="#fff" opacity="0.8"/><circle cx="163.8" cy="223.4" r="1.5" fill="#fff" opacity="0.6"/><circle cx="491" cy="510.9" r="1.1" fill="#fff" opacity="0.9"/><circle cx="1052.8" cy="380.5" r="0.9" fill="#fff" opacity="0.4"/><circle cx="889.7" cy="38.5" r="2" fill="#fff" opacity="0.7"/><circle cx="24.3" cy="521.8" r="1.7" fill="#fff" opacity="0.7"/><circle cx="53.6" cy="528.6" r="0.7" fill="#fff" opacity="1"/><circle cx="903.9" cy="227.2" r="1.3" fill="#fff" opacity="0.3"/><circle cx="758.2" cy="456.3" r="0.9" fill="#fff" opacity="0.5"/><circle cx="259.3" cy="302.6" r="1.3" fill="#fff" opacity="0.4"/><circle cx="904.3" cy="225.7" r="2" fill="#fff" opacity="0.8"/><circle cx="345.7" cy="97.3" r="2.1" fill="#fff" opacity="0.5"/><circle cx="931.1" cy="599.4" r="1.8" fill="#fff" opacity="0.6"/><circle cx="152" cy="130.1" r="1.2" fill="#fff" opacity="0.3"/><circle cx="510.6" cy="46.9" r="1.6" fill="#fff" opacity="0.4"/><circle cx="640.7" cy="213.4" r="0.6" fill="#fff" opacity="0.7"/><circle cx="35.7" cy="152.6" r="1.1" fill="#fff" opacity="0.6"/><circle cx="538.8" cy="54.3" r="2.1" fill="#fff" opacity="0.5"/><circle cx="946.4" cy="95.3" r="2" fill="#fff" opacity="0.8"/><circle cx="452.2" cy="168.6" r="1.1" fill="#fff" opacity="0.5"/><circle cx="921.8" cy="567.2" r="1.7" fill="#fff" opacity="0.9"/><circle cx="314.4" cy="119.8" r="2.3" fill="#fff" opacity="0.7"/><circle cx="156.1" cy="549.7" r="2" fill="#fff" opacity="0.9"/><circle cx="902.9" cy="560.4" r="1.8" fill="#fff" opacity="0.5"/><circle cx="894.5" cy="375.7" r="0.7" fill="#fff" opacity="0.4"/><circle cx="641.8" cy="326.5" r="2.1" fill="#fff" opacity="0.8"/><circle cx="451.4" cy="326.1" r="2.3" fill="#fff" opacity="0.7"/><circle cx="912.6" cy="481.8" r="1.5" fill="#fff" opacity="0.7"/><circle cx="1064.7" cy="181.5" r="1.8" fill="#fff" opacity="0.5"/><circle cx="559.6" cy="112.5" r="2.1" fill="#fff" opacity="0.3"/><circle cx="1099.5" cy="62.2" r="0.9" fill="#fff" opacity="0.7"/><circle cx="572.8" cy="536.3" r="0.8" fill="#fff" opacity="0.3"/><circle cx="624.9" cy="347.9" r="0.7" fill="#fff" opacity="0.3"/><circle cx="907.9" cy="21.1" r="1.6" fill="#fff" opacity="1"/><circle cx="644.8" cy="509.8" r="1.6" fill="#fff" opacity="0.3"/><circle cx="256.6" cy="47.2" r="0.9" fill="#fff" opacity="0.4"/><circle cx="650.6" cy="378.3" r="1.7" fill="#fff" opacity="0.4"/><circle cx="442" cy="199.4" r="0.8" fill="#fff" opacity="0.4"/><circle cx="770.2" cy="598.9" r="2.2" fill="#fff" opacity="0.8"/><circle cx="1165.4" cy="22.6" r="1.3" fill="#fff" opacity="1"/><circle cx="867" cy="430.6" r="2.3" fill="#fff" opacity="0.7"/><circle cx="878.7" cy="92.4" r="1.8" fill="#fff" opacity="0.4"/><circle cx="897.8" cy="3.8" r="1.9" fill="#fff" opacity="0.8"/><circle cx="1089.3" cy="6" r="1.4" fill="#fff" opacity="0.3"/><circle cx="500.2" cy="178.6" r="1.7" fill="#fff" opacity="0.3"/><circle cx="244.4" cy="22.8" r="1.2" fill="#fff" opacity="0.8"/><circle cx="137.1" cy="477.4" r="2.2" fill="#fff" opacity="0.5"/><circle cx="443.9" cy="460.4" r="2.3" fill="#fff" opacity="0.3"/><circle cx="812.5" cy="198.9" r="1.2" fill="#fff" opacity="0.8"/><circle cx="927" cy="475.1" r="1.8" fill="#fff" opacity="0.6"/><circle cx="48.1" cy="214.9" r="0.9" fill="#fff" opacity="0.3"/><circle cx="370.2" cy="195.9" r="0.7" fill="#fff" opacity="0.7"/><circle cx="199.5" cy="510.6" r="0.6" fill="#fff" opacity="0.8"/><circle cx="443.2" cy="163.1" r="1.7" fill="#fff" opacity="0.6"/><circle cx="138.4" cy="257.9" r="1.4" fill="#fff" opacity="0.4"/><circle cx="562.1" cy="269.8" r="0.9" fill="#fff" opacity="0.4"/><circle cx="851.6" cy="393.3" r="1.2" fill="#fff" opacity="0.5"/><circle cx="61.7" cy="377.8" r="0.9" fill="#fff" opacity="0.4"/><circle cx="421" cy="548.6" r="1.1" fill="#fff" opacity="0.5"/><circle cx="422.8" cy="281.2" r="0.9" fill="#fff" opacity="0.6"/><circle cx="308.7" cy="392.9" r="0.7" fill="#fff" opacity="0.9"/><circle cx="617.3" cy="71.5" r="1" fill="#fff" opacity="0.7"/><circle cx="1179.4" cy="121" r="1" fill="#fff" opacity="0.4"/><circle cx="1176.6" cy="148.8" r="1.1" fill="#fff" opacity="1"/><circle cx="883.8" cy="123.1" r="1.1" fill="#fff" opacity="0.9"/><circle cx="1063.4" cy="55.6" r="0.8" fill="#fff" opacity="0.4"/><circle cx="1136.8" cy="503.8" r="2" fill="#fff" opacity="0.8"/><circle cx="880.7" cy="249" r="0.7" fill="#fff" opacity="0.4"/><circle cx="410.6" cy="58.5" r="1.8" fill="#fff" opacity="0.6"/><circle cx="177" cy="597.8" r="1" fill="#fff" opacity="0.8"/><circle cx="665.9" cy="542.5" r="1.2" fill="#fff" opacity="0.8"/><circle cx="422.6" cy="338.1" r="1.5" fill="#fff" opacity="0.4"/><circle cx="1025.6" cy="245.8" r="0.6" fill="#fff" opacity="0.3"/><circle cx="74.5" cy="47.4" r="2.4" fill="#fff" opacity="0.3"/><circle cx="819.9" cy="1.9" r="1.6" fill="#fff" opacity="0.7"/><circle cx="255.5" cy="571.5" r="0.8" fill="#fff" opacity="0.9"/><circle cx="314.9" cy="229.2" r="0.7" fill="#fff" opacity="0.3"/><circle cx="847.2" cy="165.4" r="2.3" fill="#fff" opacity="0.7"/><circle cx="376.9" cy="426.2" r="1.5" fill="#fff" opacity="0.6"/><circle cx="405" cy="222.2" r="1.4" fill="#fff" opacity="0.5"/><circle cx="111.9" cy="517.9" r="1" fill="#fff" opacity="0.3"/><circle cx="918.9" cy="530.3" r="0.7" fill="#fff" opacity="0.6"/><circle cx="1001.5" cy="334.1" r="1.1" fill="#fff" opacity="0.8"/><circle cx="1076.6" cy="68.2" r="1.8" fill="#fff" opacity="1"/><circle cx="1031.8" cy="113.8" r="0.6" fill="#fff" opacity="0.6"/><circle cx="781.6" cy="408.7" r="1.5" fill="#fff" opacity="0.5"/><circle cx="258.4" cy="199.1" r="2.4" fill="#fff" opacity="0.7"/><circle cx="902.2" cy="422" r="1.7" fill="#fff" opacity="0.4"/><circle cx="714.1" cy="294" r="1.8" fill="#fff" opacity="0.9"/><circle cx="919" cy="449.1" r="2" fill="#fff" opacity="0.7"/><circle cx="38.7" cy="306.4" r="2.1" fill="#fff" opacity="0.5"/><circle cx="361" cy="302.1" r="2" fill="#fff" opacity="0.4"/><circle cx="260" cy="560" r="300" fill="url(#planet)"/><ellipse cx="260" cy="520" rx="440" ry="70" fill="none" stroke="hsl(130 50% 65% / 1)" stroke-width="6" opacity=".55" transform="rotate(-10 260 520)"/><g transform="rotate(-12 790 250)"><rect x="600" y="226" width="120" height="48" fill="hsl(180 60% 30% / 1)" stroke="hsl(160 30% 70% / 1)" stroke-width="2"/><line x1="620" y1="226" x2="620" y2="274" stroke="hsl(160 30% 60% / 1)" stroke-width="1"/><line x1="640" y1="226" x2="640" y2="274" stroke="hsl(160 30% 60% / 1)" stroke-width="1"/><line x1="660" y1="226" x2="660" y2="274" stroke="hsl(160 30% 60% / 1)" stroke-width="1"/><line x1="680" y1="226" x2="680" y2="274" stroke="hsl(160 30% 60% / 1)" stroke-width="1"/><line x1="700" y1="226" x2="700" y2="274" stroke="hsl(160 30% 60% / 1)" stroke-width="1"/><rect x="860" y="226" width="120" height="48" fill="hsl(180 60% 30% / 1)" stroke="hsl(160 30% 70% / 1)" stroke-width="2"/><line x1="880" y1="226" x2="880" y2="274" stroke="hsl(160 30% 60% / 1)" stroke-width="1"/><line x1="900" y1="226" x2="900" y2="274" stroke="hsl(160 30% 60% / 1)" stroke-width="1"/><line x1="920" y1="226" x2="920" y2="274" stroke="hsl(160 30% 60% / 1)" stroke-width="1"/><line x1="940" y1="226" x2="940" y2="274" stroke="hsl(160 30% 60% / 1)" stroke-width="1"/><line x1="960" y1="226" x2="960" y2="274" stroke="hsl(160 30% 60% / 1)" stroke-width="1"/><rect x="718" y="244" width="144" height="12" fill="hsl(160 10% 55% / 1)"/><rect x="750" y="218" width="80" height="64" rx="18" fill="hsl(160 10% 72% / 1)" stroke="hsl(160 10% 40% / 1)" stroke-width="3"/><circle cx="778" cy="250" r="7" fill="hsl(50 100% 70%)"/><circle cx="802" cy="250" r="7" fill="hsl(50 100% 70%)" opacity=".5"/><line x1="790" y1="218" x2="790" y2="170" stroke="hsl(160 10% 70% / 1)" stroke-width="3"/><circle cx="790" cy="166" r="6" fill="#ff4d4d"/><path d="M768 148 Q790 112 812 148" fill="none" stroke="hsl(160 80% 60% / 1)" stroke-width="3" opacity="0.8"/><path d="M746 138 Q790 90 834 138" fill="none" stroke="hsl(160 80% 60% / 1)" stroke-width="3" opacity="0.5"/><path d="M724 128 Q790 68 856 128" fill="none" stroke="hsl(160 80% 60% / 1)" stroke-width="3" opacity="0.3"/></g>
</svg>
