<svg xmlns="http://www.w3.org/2000/svg" viewBox="0 0 1200 600" preserveAspectRatio="xMidYMid slice" role="img" aria-label="crown castle (cover art)">
<!-- Original placeholder art generated by scripts/build-placeholders.mjs (Quest Board). -->
<defs><linearGradient id="sky" x1="0" y1="0" x2="0" y2="1"><stop offset="0" stop-color="hsl(230 45% 14% / 1)"/><stop offset="0.65" stop-color="hsl(25 50% 36% / 1)"/><stop offset="1" stop-color="hsl(45 70% 55% / 1)"/></linearGradient><radialGradient id="halo"><stop offset="0" stop-color="hsl(48 100% 75% / .8)"/><stop offset="1" stop-color="hsl(48 100% 60% / 0)"/></radialGradient><linearGradient id="gold" x1="0" y1="0" x2="0" y2="1"><stop offset="0" stop-color="hsl(48 95% 70%)"/><stop offset="1" stop-color="hsl(38 85% 42%)"/></linearGradient></defs>
<rect width="1200" height="600" fill="url(#sky)"/><circle cx="948" cy="147.1" r="1.2" fill="#fff" opacity="0.7"/><circle cx="1092.7" cy="219.8" r="1.8" fill="#fff" opacity="0.9"/><circle cx="83.5" cy="76.5" r="1.5" fill="#fff" opacity="0.8"/><circle cx="616.5" cy="192.5" r="2.2" fill="#fff" opacity="0.3"/><circle cx="1012.9" cy="61.1" r="2" fill="#fff" opacity="0.6"/><circle cx="627.7" cy="81.6" r="1.7" fill="#fff" opacity="0.3"/><circle cx="104.3" cy="121.6" r="1.9" fill="#fff" opacity="0.6"/><circle cx="1093.3" cy="154.8" r="1.4" fill="#fff" opacity="0.6"/><circle cx="177.1" cy="150.9" r="1.1" fill="#fff" opacity="0.5"/><circle cx="1050.4" cy="151.2" r="1" fill="#fff" opacity="0.9"/><circle cx="1016.1" cy="29.6" r="2.1" fill="#fff" opacity="0.8"/><circle cx="1014" cy="179.8" r="1.5" fill="#fff" opacity="0.8"/><circle cx="769.2" cy="39" r="1.3" fill="#fff" opacity="0.9"/><circle cx="269.1" cy="57.7" r="1.5" fill="#fff" opacity="0.6"/><circle cx="357.3" cy="52.1" r="0.9" fill="#fff" opacity="0.5"/><circle cx="192.6" cy="197" r="0.8" fill="#fff" opacity="0.5"/><circle cx="297.3" cy="4.2" r="1.3" fill="#fff" opacity="0.3"/><circle cx="291.1" cy="142.2" r="1.8" fill="#fff" opacity="0.5"/><circle cx="218.8" cy="167.7" r="2" fill="#fff" opacity="0.4"/><circle cx="705.9" cy="48.5" r="1.8" fill="#fff" opacity="0.5"/><circle cx="910.2" cy="129.9" r="1.6" fill="#fff" opacity="0.7"/><circle cx="0.6" cy="82.8" r="1.3" fill="#fff" opacity="0.9"/><circle cx="881.3" cy="72" r="1.4" fill="#fff" opacity="0.9"/><circle cx="322.9" cy="40.1" r="1.7" fill="#fff" opacity="0.7"/><circle cx="363.8" cy="130.3" r="0.7" fill="#fff" opacity="0.5"/><circle cx="143.3" cy="172.9" r="1.4" fill="#fff" opacity="0.7"/><circle cx="474.3" cy="9.4" r="1.8" fill="#fff" opacity="0.5"/><circle cx="140.9" cy="88.9" r="1.9" fill="#fff" opacity="0.7"/><circle cx="793.1" cy="143.8" r="1.9" fill="#fff" opacity="0.3"/><circle cx="205.9" cy="126.2" r="1.1" fill="#fff" opacity="0.4"/><circle cx="265.1" cy="139.7" r="1.7" fill="#fff" opacity="1"/><circle cx="1083.2" cy="104.7" r="2.3" fill="#fff" opacity="0.6"/><circle cx="817.9" cy="87.8" r="1.3" fill="#fff" opacity="0.7"/><circle cx="314" cy="165.5" r="1" fill="#fff" opacity="0.5"/><circle cx="901.5" cy="213" r="1.9" fill="#fff" opacity="0.3"/><circle cx="446.1" cy="165.2" r="0.9" fill="#fff" opacity="0.9"/><circle cx="153.4" cy="193.1" r="1.9" fill="#fff" opacity="0.5"/><circle cx="303.2" cy="63.3" r="1.8" fill="#fff" opacity="0.7"/><circle cx="207.7" cy="183.1" r="1.5" fill="#fff" opacity="0.9"/><circle cx="459.8" cy="25.8" r="1" fill="#fff" opacity="0.8"/><circle cx="543.2" cy="26.9" r="1.4" fill="#fff" opacity="0.9"/><circle cx="213.6" cy="178.2" r="1.3" fill="#fff" opacity="0.6"/><circle cx="751.8" cy="197.6" r="1.2" fill="#fff" opacity="0.3"/><circle cx="423.4" cy="102.7" r="2.1" fill="#fff" opacity="1"/><circle cx="767.7" cy="44.7" r="1.2" fill="#fff" opacity="0.4"/><circle cx="271.7" cy="35.4" r="2.1" fill="#fff" opacity="1"/><circle cx="459.6" cy="192.4" r="2.1" fill="#fff" opacity="1"/><circle cx="414.5" cy="186.9" r="1.9" fill="#fff" opacity="0.6"/><circle cx="952.9" cy="146" r="1.8" fill="#fff" opacity="0.6"/><circle cx="398.6" cy="142.1" r="1.9" fill="#fff" opacity="0.3"/><circle cx="394.6" cy="97" r="2.3" fill="#fff" opacity="0.8"/><circle cx="395.8" cy="87.4" r="2.1" fill="#fff" opacity="0.8"/><circle cx="539.8" cy="114.8" r="1.9" fill="#fff" opacity="0.3"/><circle cx="953.4" cy="30.5" r="1.8" fill="#fff" opacity="0.8"/><circle cx="523.9" cy="101.5" r="2.4" fill="#fff" opacity="0.3"/><circle cx="1159.6" cy="32.5" r="2" fill="#fff" opacity="0.5"/><circle cx="1027.5" cy="112.1" r="0.6" fill="#fff" opacity="0.3"/><circle cx="760.9" cy="80.8" r="0.6" fill="#fff" opacity="0.5"/><circle cx="944.4" cy="208" r="2.2" fill="#fff" opacity="1"/><circle cx="703.1" cy="182.2" r="2.2" fill="#fff" opacity="0.6"/><path d="M0 600 L0 470 Q120 410.7 240 463.2 Q360 388.1 480 451.4 Q600 433.8 720 465.4 Q840 368.3 960 463.8 Q1080 377.3 1200 467.8 L1200 600 Z" fill="hsl(230 30% 18% / 1)"/><rect x="470" y="330" width="260" height="270" fill="hsl(230 35% 10% / 1)"/><rect x="410" y="270" width="80" height="330" fill="hsl(230 35% 10% / 1)"/><polygon points="402,270 450,200 498,270" fill="hsl(230 35% 10% / 1)"/><rect x="443" y="310" width="14" height="22" rx="7" fill="hsl(45 90% 60%)" opacity=".85"/><rect x="710" y="270" width="80" height="330" fill="hsl(230 35% 10% / 1)"/><polygon points="702,270 750,200 798,270" fill="hsl(230 35% 10% / 1)"/><rect x="743" y="310" width="14" height="22" rx="7" fill="hsl(45 90% 60%)" opacity=".85"/><rect x="560" y="360" width="80" height="240" fill="hsl(230 35% 10% / 1)"/><polygon points="552,360 600,290 648,360" fill="hsl(230 35% 10% / 1)"/><rect x="593" y="400" width="14" height="22" rx="7" fill="hsl(45 90% 60%)" opacity=".85"/><rect x="470" y="316" width="16" height="16" fill="hsl(230 35% 10% / 1)"/><rect x="496" y="316" width="16" height="16" fill="hsl(230 35% 10% / 1)"/><rect x="522" y="316" width="16" height="16" fill="hsl(230 35% 10% / 1)"/><rect x="548" y="316" width="16" height="16" fill="hsl(230 35% 10% / 1)"/><rect x="574" y="316" width="16" height="16" fill="hsl(230 35% 10% / 1)"/><rect x="600" y="316" width="16" height="16" fill="hsl(230 35% 10% / 1)"/><rect x="626" y="316" width="16" height="16" fill="hsl(230 35% 10% / 1)"/><rect x="652" y="316" width="16" height="16" fill="hsl(230 35% 10% / 1)"/><rect x="678" y="316" width="16" height="16" fill="hsl(230 35% 10% / 1)"/><rect x="704" y="316" width="16" height="16" fill="hsl(230 35% 10% / 1)"/><path d="M560 600 L560 520 Q600 470 640 520 L640 600 Z" fill="hsl(40 60% 25%)"/><circle cx="600" cy="170" r="150" fill="url(#halo)"/><path d="M520 210 L540 130 L565 195 Z" fill="url(#gold)" stroke="hsl(38 70% 30%)" stroke-width="3" transform="translate(-18 4) rotate(-12 600 190)"/><path d="M570 195 L600 110 L630 195 Z" fill="url(#gold)" stroke="hsl(38 70% 30%)" stroke-width="3" transform="translate(-9 -6) rotate(-6 600 190)"/><path d="M635 195 L660 130 L680 210 Z" fill="url(#gold)" stroke="hsl(38 70% 30%)" stroke-width="3" transform="translate(0 4) rotate(0 600 190)"/><path d="M515 215 L595 210 L590 245 L520 250 Z" fill="url(#gold)" stroke="hsl(38 70% 30%)" stroke-width="3" transform="translate(9 -6) rotate(6 600 190)"/><path d="M605 210 L685 215 L680 250 L610 245 Z" fill="url(#gold)" stroke="hsl(38 70% 30%)" stroke-width="3" transform="translate(18 4) rotate(12 600 190)"/><circle cx="540" cy="132" r="7" fill="hsl(350 80% 55%)"/><circle cx="600" cy="112" r="7" fill="hsl(350 80% 55%)"/><circle cx="660" cy="132" r="7" fill="hsl(350 80% 55%)"/>
</svg>
