<svg xmlns="http://www.w3.org/2000/svg" viewBox="0 0 512 512" preserveAspectRatio="xMidYMid slice" role="img" aria-label="Game Master portrait (placeholder)">
<!-- Original placeholder art generated by scripts/build-placeholders.mjs (Quest Board). -->
<defs><linearGradient id="bg" x1="0" y1="0" x2="0" y2="1"><stop offset="0" stop-color="hsl(140 55% 55% / 1)"/><stop offset="1" stop-color="hsl(180 55% 30% / 1)"/></linearGradient><clipPath id="c"><rect width="512" height="512"/></clipPath></defs>
<g clip-path="url(#c)">
  <rect width="512" height="512" fill="url(#bg)"/>
  <circle cx="420" cy="90" r="120" fill="#fff" opacity=".08"/><circle cx="80" cy="440" r="90" fill="#fff" opacity=".06"/>
  <path d="M130 300 C110 110 402 110 382 300 C410 380 430 450 440 512 L72 512 C82 450 102 380 130 300 Z" fill="hsl(140 45% 38% / 1)"/>
  <path d="M96 512 C108 400 190 364 256 364 C322 364 404 400 416 512 Z" fill="hsl(140 45% 32% / 1)"/>
  <rect x="226" y="300" width="60" height="76" rx="20" fill="#e0b08a"/>
  <ellipse cx="166" cy="250" rx="16" ry="24" fill="#e0b08a"/><ellipse cx="346" cy="250" rx="16" ry="24" fill="#e0b08a"/>
  <ellipse cx="256" cy="240" rx="90" ry="104" fill="#e0b08a"/>
  <circle cx="222" cy="248" r="9" fill="hsl(140 30% 14% / 1)"/><circle cx="290" cy="248" r="9" fill="hsl(140 30% 14% / 1)"/>
  <circle cx="225" cy="245" r="3" fill="#fff"/><circle cx="293" cy="245" r="3" fill="#fff"/>
  <path d="M204 220 Q222 208 240 218 M272 218 Q290 208 308 220" fill="none" stroke="hsl(140 30% 14% / 1)" stroke-width="6" stroke-linecap="round"/>
  <circle cx="200" cy="284" r="14" fill="hsl(0 70% 60%)" opacity=".22"/><circle cx="312" cy="284" r="14" fill="hsl(0 70% 60%)" opacity=".22"/>
  <path d="M230 292 Q256 314 282 292" fill="none" stroke="hsl(140 30% 14% / 1)" stroke-width="6" stroke-linecap="round"/>
  <path d="M144 250 C140 76 372 76 368 250 C362 330 320 360 256 362 C192 360 150 330 150 250 Z M180 256 C182 318 216 344 256 344 C296 344 330 318 332 256 C332 206 300 186 256 186 C212 186 180 206 180 256 Z" fill="hsl(140 45% 38% / 1)" fill-rule="evenodd"/>
      <path d="M184 222 C212 192 300 192 328 222" fill="none" stroke="hsl(140 40% 26% / 1)" stroke-width="6"/>
      <circle cx="256" cy="398" r="11" fill="hsl(45 90% 60%)" stroke="hsl(140 40% 22% / 1)" stroke-width="3"/>
</g>
</svg>
